/* XPM */
static char *_39eece0c15942e0fedfee612f1d53b8cjxNHRibE4KwXxVW[] = {
/* columns rows colors chars-per-pixel */
"32 32 136 2 ",
"   c None",
".  c #542E16",
"X  c #522E19",
"o  c #563017",
"O  c #56321A",
"+  c #58351C",
"@  c #5D391F",
"#  c #563522",
"$  c #563826",
"%  c #5C3B24",
"&  c #5E3E29",
"*  c #613E24",
"=  c #603F29",
"-  c #5F4029",
";  c #5D4432",
":  c #624126",
">  c #65442A",
",  c #69472E",
"<  c #67492C",
"1  c #6A4A2E",
"2  c #624630",
"3  c #634935",
"4  c #6D4E31",
"5  c #634D3A",
"6  c #704E31",
"7  c #6E5133",
"8  c #66513E",
"9  c #68513B",
"0  c #715436",
"q  c #735837",
"w  c #735738",
"e  c #755A3B",
"r  c #795E3E",
"t  c #7B603F",
"y  c #675441",
"u  c #695542",
"i  c #6D5945",
"p  c #6D5B49",
"a  c #715C46",
"s  c #7A5F40",
"d  c #725D49",
"f  c #7D6241",
"g  c #7E6240",
"h  c #7E6241",
"j  c #7E6341",
"k  c #7C6142",
"l  c #7D6142",
"z  c #7C6143",
"x  c #7C6242",
"c  c #7D6242",
"v  c #7D6243",
"b  c #7D6343",
"n  c #7E6343",
"m  c #7C6141",
"M  c #7F6441",
"N  c #7F6444",
"B  c #7F6544",
"V  c #7F6545",
"C  c #7D6447",
"Z  c #7F6446",
"A  c #7F6546",
"S  c #7B6040",
"D  c #74604A",
"F  c #74614B",
"G  c #76604B",
"H  c #76604C",
"J  c #77604C",
"K  c #76624E",
"L  c #75644E",
"P  c #76644F",
"I  c #73624D",
"U  c #776650",
"Y  c #776651",
"T  c #796650",
"R  c #786751",
"E  c #796752",
"W  c #796753",
"Q  c #786851",
"!  c #796852",
"~  c #7A6954",
"^  c #7B6A54",
"/  c #7C6B55",
"(  c #7D6D57",
")  c #7A6A55",
"_  c #7E6D58",
"`  c #7F6E58",
"'  c #7F6F5A",
"]  c #7E6E59",
"[  c #7F715E",
"{  c #806544",
"}  c #806545",
"|  c #806644",
" . c #816644",
".. c #806645",
"X. c #806745",
"o. c #816647",
"O. c #816747",
"+. c #826747",
"@. c #826847",
"#. c #806548",
"$. c #816748",
"%. c #80674B",
"&. c #826848",
"*. c #836949",
"=. c #836A4B",
"-. c #846A4B",
";. c #866B4B",
":. c #836B4C",
">. c #876C4C",
",. c #886D4C",
"<. c #8A714F",
"1. c #8B714F",
"2. c #806C57",
"3. c #826F5C",
"4. c #897050",
"5. c #8A7151",
"6. c #8A7152",
"7. c #8C7254",
"8. c #8E7656",
"9. c #8F7756",
"0. c #81715B",
"q. c #81725E",
"w. c #8F7658",
"e. c #917958",
"r. c #917959",
"t. c #927A59",
"y. c #927A5B",
"u. c #947C5D",
"i. c #957D5E",
"p. c #857260",
"a. c #847664",
"s. c #887563",
"d. c #867866",
"f. c #877968",
"g. c #8D806F",
"h. c #8E8171",
/* pixels */
"                        4 6 0 : 0 0 0                           ",
"                1 s o.1 1.1.,.* ,.;.>.* 0 4 *                   ",
"              * 5.9.t.0 u.u.t.1 t.t.9.: v S e @                 ",
"            v w w.7.5.4 r e r : r t t > e ;.*.> 1               ",
"          w 5.s e *.Z 1 v v s 1 r v v < v S s w r >             ",
"        > Z Z 1 e *.o.4 v v v 1 t v t 7 v S s 7 v e %           ",
"        4 :.e 7 o.B o.0 v v v 1 v v v 4 S S s 0 t #.:           ",
"        #.r e 0 v { o.0 S S v 1 B v v 7 S S S w t t #.          ",
"        s e e 0 v Z e 0 S S v 4 { v v 7 w S S w t r Z           ",
"        * : > > 1 , s.1 s s v 4 o.v v 1 q., > > > : &           ",
"        a T ^ ` 0.0.` 2.0 r v 4 { t q 3.( ` Q Q T Y d           ",
"        9 i a D K P / 3 r r S 4 o.v v > Q D a i i i 9           ",
"        % % % @ : : 3 4 r r S 4 o.v v 1 2 : : : : * %           ",
"        7 e e 1 r S 7 4 r r S 4 o.v v 7 0 s r 0 e w 7           ",
"        7 w e 7 r r e 4 r r S 4 @.v v 7 S r r 0 w w 7           ",
"        7 w w 7 s r e 4 r r r 4 o.v v 7 r r r 7 w w 7           ",
"        7 w w 7 r e e 0 e e r 1 o.t S 0 r r r 7 0 0 7           ",
"        7 w w 7 r e e 7 e 7 K K D 0 t 0 r r r 7 0 0 7           ",
"        7 0 0 7 r e w 7 e : Q P T : t 0 r r e 1 7 7 4           ",
"        4 0 0 7 r 0 w 7 e % F # F % e 0 r e e 1 7 7 4           ",
"        4 0 0 7 r 0 0 4 e % 9 9 9 % e 7 e e e 1 7 7 4           ",
"        % : : : > : ~ 1 w 0 * o * 0 w 1 T > > * * & %           ",
"        a T ^ ` q.q.^ d 0 w w > e w 0 d ^ ` ^ T T Y d           ",
"        5 i d F K P T 8 7 w w > w w 7 8 P K p p p i 9           ",
"        . o o o + + 8 % 0 0 w > 0 0 0 * 3 o o o o o o           ",
"        < 4 4 : 7 7 < > 0 0 0 : 0 7 7 > 1 e q > 1 1 >           ",
"        1 7 7 < 7 7 0 > 0 0 0 % 0 7 7 > e e e > 4 4 1           ",
"        # & = = - & & & % $ $ X & & & & & & & $ $ # #           ",
"        Y [ q.q.q.q.a.d.d.d.g.; h.f.d.d.q.q.[ [ [ [ ^           ",
"        5 y y y y i i p p p I $ I p p p p i u y 8 8 5           ",
"        3 8 8 y y y i i i p I $ I p p i i u y y 8 5 3           ",
"        ; ; 5 5 5 5 5 8 8 8 u # y 8 8 8 8 5 5 5 5 3 ;           "
};
