/* XPM */
static char *ae059f43f1b046c6a7d0a325c4df82f2feonxO0LjnlzaqFZ[] = {
/* columns rows colors chars-per-pixel */
"32 32 11 1 ",
"  c None",
". c black",
"X c #262B44",
"o c #68386C",
"O c #B86F50",
"+ c #D77643",
"@ c #E4A672",
"# c #B55088",
"$ c #EAD4AA",
"% c #C0CBDC",
"& c white",
/* pixels */
"                                ",
"                                ",
"                                ",
"                                ",
"                                ",
"              @@@               ",
"             @@@@@              ",
"            $@@@@@.             ",
"            $$$$@+%             ",
"           &@$$++O%.            ",
"           &&@@OO%%.            ",
"           &&&&&%%%.            ",
"           &#&&&%o%%            ",
"          &###&%ooo%%           ",
"         &&####oooo%%.          ",
"         &#####ooooo%%          ",
"        &&o&###ooooX%%.         ",
"        &&oo&&#oooXX%%.         ",
"        &&oooo#oXXXX%%.         ",
"         &&ooooXXXX%%.          ",
"         &&ooooXXXX%%.          ",
"          &&oooXXX%%.           ",
"           &&ooXX%%.            ",
"             &&%%.              ",
"                                ",
"                                ",
"                                ",
"                                ",
"                                ",
"                                ",
"                                ",
"                                "
};
