/* XPM */
static char *_b8a761504b8421e9f42f25d207acc93W5TV5Z7RPVPTdH5n[] = {
/* columns rows colors chars-per-pixel */
"32 32 14 1 ",
"  c None",
". c #18181A",
"X c #1D1D1C",
"o c #252525",
"O c #3E373D",
"+ c #44563E",
"@ c #625353",
"# c #8B5B37",
"$ c #897A71",
"% c #BEB050",
"& c #C5C57F",
"* c #53BF83",
"= c #B5A793",
"- c #DAD4BC",
/* pixels */
"                                ",
"          XXXXXX        XXXXXX  ",
"          XXXXXX        XXXXXX  ",
"        XX======XX    XX------XX",
"        XX======XX    XX------XX",
"      XX==$$==$$==XX  XX@@--@@XX",
"      XX==$$==$$==XX  XX@@--@@XX",
"    XX==$$==$$OO$$XX  XX==@@==XX",
"    XX==$$==$$OO$$XX  XX==@@==XX",
"  XX==$$@@$$**..**XX  XX++==++XX",
"  XX==$$@@$$**..**XX  XX++==++XX",
"  XX==@@OO$$OO..OOXX    XX++XX  ",
"  XX==@@OO$$OO..OOXX    XX++XX  ",
"XX==$$OO==$$OO..OOXX    XX##XX  ",
"XX==$$OO==$$OO..OOXX    XX##XX  ",
"  XXOO==$$@@$$OO$$@@XX  XX##XX  ",
"  XXOO==$$@@$$OO$$@@XX  XX##XX  ",
"    XX$$@@OO@@$$@@OO&&XXXX##XX  ",
"    XX$$@@OO@@$$@@OO&&XXXX##XX  ",
"    XX@@&&ooOO@@OOXXXX&&XX##XX  ",
"    XX@@&&ooOO@@OOXXXX&&XX##XX  ",
"    XXOO%%&&&&OOXX    XXXX##XX  ",
"    XXOO%%&&&&OOXX    XXXX##XX  ",
"    XX@@OO@@OOOOXX      XX##XX  ",
"    XX@@OO@@OOOOXX      XX##XX  ",
"    XXOO@@OOOOooXX      XX##XX  ",
"    XXOO@@OOOOooXX      XX##XX  ",
"    XX@@OOOOooooXX      XX##XX  ",
"    XX@@OOOOooooXX      XX##XX  ",
"  XX@@OOOOoooo..XXXX    XX##XX  ",
"  XX@@OOOOoooo..XXXX    XX##XX  ",
"                                "
};
