/* XPM */
static char *_36a5201e3b94982e37e8598266de37ddD3d6IGTYeLMYA07[] = {
/* columns rows colors chars-per-pixel */
"32 32 110 2 ",
"   c None",
".  c #4F2A15",
"X  c #522C15",
"o  c #512E1A",
"O  c #563017",
"+  c #55321B",
"@  c #5A351B",
"#  c #5C381F",
"$  c #543623",
"%  c #5C3B22",
"&  c #573D2B",
"*  c #5A3E2B",
"=  c #633E22",
"-  c #59402E",
";  c #5C4634",
":  c #5F4835",
">  c #634126",
",  c #634429",
"<  c #694528",
"1  c #67492D",
"2  c #6C4B2F",
"3  c #624734",
"4  c #6C4E31",
"5  c #634D3B",
"6  c #704F33",
"7  c #6E5135",
"8  c #64503E",
"9  c #735335",
"0  c #72573A",
"q  c #765A3C",
"w  c #795C3E",
"e  c #675341",
"r  c #6B5541",
"t  c #6B5946",
"y  c #6D5B49",
"u  c #745D47",
"i  c #7A5E41",
"p  c #715E4A",
"a  c #7C6141",
"s  c #7D6242",
"d  c #7C6243",
"f  c #7E6243",
"g  c #7F6243",
"h  c #7C6244",
"j  c #7C6245",
"k  c #7D6345",
"l  c #7F6344",
"z  c #7F6444",
"x  c #7E6446",
"c  c #7B6142",
"v  c #75614B",
"b  c #76604A",
"n  c #70604D",
"m  c #7D6248",
"M  c #766350",
"N  c #746351",
"B  c #7D6953",
"V  c #7B6956",
"C  c #7C6956",
"Z  c #7D6A56",
"A  c #7F6C58",
"S  c #7B6C5B",
"D  c #806445",
"F  c #806545",
"G  c #806547",
"H  c #806647",
"J  c #826749",
"K  c #836848",
"L  c #826849",
"P  c #83694A",
"I  c #856B4D",
"U  c #866C4C",
"Y  c #866D4D",
"T  c #866C4E",
"R  c #866D4E",
"E  c #876E4E",
"W  c #876F4F",
"Q  c #886F4F",
"!  c #89704F",
"~  c #816F5B",
"^  c #897151",
"/  c #8A7050",
"(  c #8A7150",
")  c #8A7051",
"_  c #897052",
"`  c #8A7253",
"'  c #8B7253",
"]  c #8B7354",
"[  c #8B7355",
"{  c #8C7354",
"}  c #8C7454",
"|  c #8D7557",
" . c #8F7856",
".. c #82715D",
"X. c #8F795C",
"o. c #917959",
"O. c #91795A",
"+. c #90795B",
"@. c #90795D",
"#. c #917A5C",
"$. c #917A5D",
"%. c #947D5C",
"&. c #957D5D",
"*. c #947D5F",
"=. c #897763",
"-. c #968060",
";. c #988161",
":. c #9A8361",
">. c #9B8465",
",. c #9C8566",
/* pixels */
"            Y k @                           4 ^ L               ",
"          i Y c @                           4 ! Q w             ",
"          k Y i @                           2 ^ | i             ",
"        2 ^ ^ c @                           2  .+.^ 4           ",
"        2 +.^ 4 @                           2 d :.+.2           ",
"        2 *.] 4 O                           4 d >.*.2           ",
"        m $.] 4 O                           2 d ,.*.i           ",
"        $.| 0 4 O                           2 k I :.{           ",
"        $.] 7 4 X                           2 H J -.^           ",
"        X.^ 4 > X                           2 w H *.Y           ",
"        0 7 + * X                           > u 4 w 6           ",
"        Z ~ e > X                           > 2 ..=.A           ",
"        u v % 1 X                           = w 4 B v           ",
"        # # 2 1 X                           = H q < =           ",
"        c i 4 1 O                           = d x Y i           ",
"        k d 4 # 3                           Z 4 k Y i           ",
"        k w 1 # -                           p 2 d L q           ",
"        d q 1 @ -                           p 2 w L q           ",
"        c q , > +                           # q w H 0           ",
"        i q , > X                           @ 9 q x 0           ",
"        i 0 > > X                           O 9 9 c 7           ",
"        w 0 > % X                           X r 1 c 7           ",
"        7 4 O * X                           X 3 5 7 ,           ",
"        M V 5 @ X                           + = t V p           ",
"        r p * X ;                           y # % p r           ",
"        + + @ O -                           5 % > + +           ",
"        7 7 % * -                           5 ; 2 q 1           ",
"        q 0 % & X                           o 5 2 w 4           ",
"        % % o ; .                           o n + % %           ",
"        p M 8 $                               : S p r           ",
"        y t ; $                               : S e 5           ",
"        y t ;                                   V e 5           "
};
